<?xml version="1.0" standalone="no"?>
<!DOCTYPE svg PUBLIC "-//W3C//DTD SVG 20010904//EN"
 "http://www.w3.org/TR/2001/REC-SVG-20010904/DTD/svg10.dtd">
<svg version="1.0" xmlns="http://www.w3.org/2000/svg"
 width="254.000000pt" height="254.000000pt" viewBox="0 0 254.000000 254.000000"
 preserveAspectRatio="xMidYMid meet">
<metadata>
Created by potrace 1.11, written by Peter Selinger 2001-2013
</metadata>
<g transform="translate(0.000000,254.000000) scale(0.100000,-0.100000)"
fill="#000000" stroke="none">
<path d="M1865 2309 c-159 -9 -219 -18 -395 -61 -157 -38 -294 -40 -555 -9
-99 11 -215 21 -257 21 -92 0 -333 -44 -410 -75 -9 -4 -28 1 -42 10 -28 18
-87 14 -117 -8 -51 -38 -43 -106 14 -127 56 -20 59 -24 82 -90 33 -93 96 -272
155 -440 28 -80 87 -246 130 -370 43 -124 90 -258 105 -298 l26 -74 -29 -46
c-45 -76 -55 -108 -48 -159 11 -83 62 -134 164 -164 50 -14 48 -12 93 -141 33
-99 44 -110 79 -88 12 7 10 21 -18 88 -41 100 -41 116 -2 110 30 -5 40 6 40
42 0 18 -26 30 -66 30 -12 0 -27 6 -34 14 -12 16 -100 262 -100 283 0 22 100
71 194 94 107 27 205 28 348 5 182 -30 274 -20 415 45 131 60 323 95 467 86
92 -6 200 -35 291 -78 31 -15 50 -18 56 -12 6 6 13 100 16 221 5 181 4 221
-12 284 -22 91 -53 153 -99 197 -36 35 -36 36 -36 117 0 84 -16 181 -45 270
-32 98 -108 264 -131 288 -23 22 -96 48 -126 45 -7 -1 -76 -6 -153 -10z
m-1530 -433 c63 -108 210 -486 245 -633 25 -103 38 -243 23 -243 -10 0 -36 65
-64 155 -7 22 -22 69 -35 105 -13 36 -37 106 -53 155 -24 74 -90 263 -165 477
-24 66 7 56 49 -16z m1847 -265 c37 -10 78 -26 93 -35 85 -56 143 -271 128
-478 -8 -117 -13 -123 -83 -103 -60 17 -166 38 -190 38 -8 0 -42 0 -75 -1 -33
0 -82 0 -110 0 -58 1 -159 -10 -195 -22 -14 -4 -45 -13 -70 -20 -25 -7 -58
-18 -75 -25 -153 -66 -157 -67 -282 -61 -65 2 -147 10 -183 15 -174 29 -238
23 -359 -30 -35 -16 -69 -29 -76 -29 -15 0 -22 46 -31 195 -4 65 -12 108 -22
124 -16 24 -53 226 -46 246 6 16 161 61 290 84 82 15 145 14 320 -5 151 -16
310 -14 369 5 357 115 477 136 597 102z m-1508 -1031 c15 -44 22 -78 17 -83
-11 -11 -67 26 -82 55 -14 27 -14 80 1 108 17 32 33 12 64 -80z"/>
</g>
</svg>
